<svg version="1.1" id="Layer_1" xmlns="http://www.w3.org/2000/svg" xmlns:xlink="http://www.w3.org/1999/xlink" x="0px" y="0px"
	 width="100%" viewBox="0 0 1024 976" enable-background="new 0 0 1024 976" xml:space="preserve">
<path fill="#000000" opacity="1.000000" stroke="none" 
	d="
M273.898865,851.155884 
	C213.324539,811.274109 165.111603,760.325378 130.827255,696.693604 
	C108.452286,655.165649 93.718384,610.844360 86.014763,564.317078 
	C81.358170,536.192749 79.141106,507.796173 80.059669,479.258362 
	C82.405769,406.369904 102.604118,338.452240 139.003860,275.552399 
	C172.269501,218.068344 217.704468,171.713318 272.856598,134.846558 
	C315.250458,106.508125 361.508148,86.910316 410.865112,74.512939 
	C434.479889,68.581429 458.513275,64.902290 482.757233,62.870735 
	C493.526245,61.968327 504.383240,61.944138 515.203186,61.848259 
	C573.610962,61.330692 629.828308,72.252434 684.268188,93.417145 
	C734.491821,112.942688 778.923096,141.669693 818.378601,177.861282 
	C867.924438,223.308578 904.767151,277.644196 927.668640,341.135315 
	C937.804932,369.236664 945.781799,397.905640 949.869873,427.523834 
	C955.607300,469.091949 956.793640,510.635925 950.681396,552.409912 
	C943.339905,602.585144 927.442261,649.840576 904.073486,694.562378 
	C880.927246,738.858154 849.826904,777.123779 812.619629,810.464355 
	C779.080261,840.518127 741.449341,864.253601 700.487671,882.711609 
	C660.616760,900.678101 618.910583,912.509949 575.544495,918.223206 
	C549.918335,921.599304 524.116821,923.131531 498.295227,922.149231 
	C454.251038,920.473755 411.426208,912.094910 369.782013,897.507690 
	C337.265350,886.117676 306.195374,871.813660 277.101013,853.307373 
	C276.117493,852.681763 275.164581,852.008057 273.898865,851.155884 
M563.470947,81.159546 
	C562.804810,81.133301 562.136475,81.132645 561.472778,81.077133 
	C525.847717,78.097397 490.307587,78.083916 454.848450,83.444862 
	C418.436615,88.949867 383.377045,98.884209 349.512512,113.445992 
	C305.925232,132.188568 266.658661,157.518143 231.624161,189.378937 
	C194.628357,223.023361 165.108688,262.439819 142.278320,306.906067 
	C111.954750,365.966583 97.514977,428.858368 97.394714,495.067505 
	C97.362091,513.029053 98.807617,530.976135 101.233139,548.829529 
	C106.261452,585.841187 115.770302,621.693726 130.612564,655.891724 
	C160.049088,723.716370 204.929581,779.435852 264.536224,823.243469 
	C335.145081,875.137146 414.566742,901.469971 501.840454,904.762390 
	C532.905334,905.934265 563.764832,903.364380 594.308533,897.660156 
	C633.635132,890.315735 671.483459,878.230286 707.377014,860.480042 
	C738.111816,845.280945 766.583862,826.574341 792.661987,804.214172 
	C830.102356,772.111755 861.160706,734.769531 885.346069,691.805786 
	C920.972656,628.517334 936.182007,559.908630 937.649170,487.849792 
	C938.019348,469.667755 935.900391,451.583466 933.375244,433.632538 
	C927.346375,390.773438 914.792358,349.780243 895.770447,310.908234 
	C864.881470,247.785446 820.189758,196.422272 762.682129,156.100388 
	C721.926025,127.523911 677.812927,106.266319 629.534241,93.676025 
	C608.067932,88.077950 586.456787,83.547989 563.470947,81.159546 
z"/>
<path fill="#000000" opacity="1.000000" stroke="none" 
	d="
M775.859680,529.612183 
	C765.919128,588.432922 740.261719,638.530701 697.096741,679.328430 
	C667.379333,707.416016 632.549805,726.850098 593.540100,738.641602 
	C571.966248,745.162781 549.773315,748.275574 527.179932,749.453430 
	C478.818329,751.974548 433.513519,741.157959 390.974640,718.835266 
	C355.273254,700.100525 326.054565,673.592529 302.866058,640.579834 
	C283.682434,613.268799 270.433411,583.261658 262.984131,550.732422 
	C256.006836,520.264343 254.439209,489.517426 258.575745,458.499939 
	C264.923309,410.902496 283.520355,368.494507 313.677673,331.352234 
	C343.278381,294.895538 380.026764,267.949738 424.477448,252.131409 
	C458.838379,239.903641 494.202423,232.668823 530.808777,235.128464 
	C562.863342,237.282257 593.893921,244.217834 623.671570,257.052979 
	C680.556030,281.572021 722.156311,322.108826 750.660889,376.448700 
	C766.305420,406.272827 774.903748,438.262878 777.458984,471.952118 
	C778.913879,491.133606 779.010315,510.170624 775.859680,529.612183 
M649.205688,290.302277 
	C627.265076,276.696533 604.070496,266.022522 578.828125,260.100739 
	C560.485779,255.797653 542.006958,252.086975 523.094971,252.508453 
	C512.629639,252.741669 502.134796,253.010696 491.664124,254.044434 
	C458.376923,257.330780 427.048187,266.772034 397.993713,283.348236 
	C367.353302,300.829224 341.538391,323.715515 320.471069,352.167023 
	C279.936798,406.908752 267.038086,468.152008 277.472229,534.626709 
	C285.361633,584.888916 309.468170,627.247925 345.126801,662.875488 
	C370.026794,687.753906 399.269684,706.342041 432.641083,718.377075 
	C470.985260,732.205505 510.499634,735.068176 550.404724,730.176331 
	C583.906860,726.069519 615.313232,714.781555 644.430237,697.052368 
	C689.410583,669.664062 721.711548,631.401306 742.297119,583.441895 
	C756.943481,549.319641 762.541809,513.339050 760.026428,476.047516 
	C758.568237,454.429749 754.715820,433.399170 747.400635,413.134186 
	C728.718750,361.380310 695.868652,320.728760 649.205688,290.302277 
z"/>
<path fill="#000000" opacity="1.000000" stroke="none" 
	d="
M765.676636,641.854370 
	C768.525146,637.507385 771.183655,633.477051 773.852234,629.453369 
	C775.139343,627.512512 776.671875,625.953918 779.192444,627.338379 
	C781.622986,628.673401 781.708008,630.793274 780.347717,632.877197 
	C778.109741,636.305420 779.651794,638.357971 782.530640,640.260437 
	C794.619263,648.249451 806.681030,656.279297 818.723999,664.336975 
	C823.567627,667.577759 828.180420,671.190613 833.169739,674.181335 
	C849.869751,684.191406 847.100525,707.036987 832.749084,717.733093 
	C824.013184,724.243958 815.021179,725.209290 805.394226,719.338562 
	C788.749634,709.188660 772.807556,697.992493 756.639526,687.130981 
	C754.703735,685.830505 752.800659,684.478149 750.827026,683.238098 
	C749.146973,682.182556 747.401794,681.749573 745.945374,683.630920 
	C744.649231,685.305054 743.771667,687.096191 745.437195,689.036865 
	C747.171753,691.058044 748.884460,693.110535 750.762695,694.993774 
	C766.764282,711.038208 782.853088,726.996155 798.770203,743.123718 
	C801.074036,745.458008 802.608215,745.683472 804.882507,743.370422 
	C806.361816,741.865845 808.341858,741.062988 810.150818,742.999939 
	C811.984985,744.963806 810.854858,746.823792 809.388977,748.262695 
	C804.637024,752.927246 799.806091,757.514282 794.909424,762.026733 
	C793.351929,763.462097 791.417053,764.109924 789.476868,762.553955 
	C787.222778,760.746216 787.834900,758.773376 789.379822,756.906311 
	C791.294800,754.592041 790.622986,752.879395 788.628113,750.912048 
	C781.157410,743.543945 773.807739,736.052246 766.466736,728.553955 
	C764.544067,726.590027 762.848816,725.839905 760.611816,728.184692 
	C756.012085,733.005859 751.260925,737.687561 745.986450,741.781738 
	C743.215149,743.932800 743.421387,745.765015 745.691589,748.323730 
	C752.673096,756.192383 760.101257,763.569458 768.100220,770.403198 
	C770.714417,772.636597 772.925537,773.859009 775.742737,770.798889 
	C777.085571,769.340332 779.035645,768.826782 780.691467,770.230774 
	C782.526672,771.786987 781.498657,773.582275 780.449707,775.143799 
	C776.018188,781.740662 769.220459,785.985535 763.890076,791.697021 
	C762.736328,792.933044 761.171265,792.920166 759.819946,791.802307 
	C758.201294,790.463440 757.503906,788.458008 758.810608,786.929688 
	C762.347656,782.793152 759.911865,780.489929 756.949341,777.552979 
	C740.978760,761.719360 725.226257,745.665955 709.294128,729.793213 
	C707.182129,727.689087 705.088257,724.119995 701.484070,725.714722 
	C697.934998,727.284851 698.885620,731.265869 699.059692,734.254333 
	C700.695251,762.340393 702.500122,790.416687 704.278687,818.494324 
	C704.308105,818.958374 704.621765,819.404358 705.289734,821.081604 
	C712.759766,815.320129 722.168884,813.159790 728.041687,805.481384 
	C731.318665,801.196777 730.968384,796.134399 730.292175,791.077637 
	C729.860901,787.852234 728.607117,783.366760 732.737000,782.466125 
	C737.232422,781.485657 737.094482,786.445557 738.059998,789.383728 
	C739.460571,793.645630 740.458801,798.041138 741.898438,802.288208 
	C742.855286,805.111023 742.375122,807.049805 739.764526,808.612732 
	C725.625122,817.077759 711.536316,825.627441 697.394714,834.088623 
	C693.803467,836.237244 693.093079,833.918213 692.895142,830.951843 
	C692.263428,821.481689 691.456360,812.020813 690.987915,802.542908 
	C690.116577,784.913452 689.520935,767.270203 688.619263,749.642517 
	C688.385193,745.065857 688.052307,740.419189 686.687683,735.974915 
	C672.880371,739.020996 662.911255,750.671753 662.310242,764.106689 
	C662.213501,766.269775 662.439514,768.867859 659.648987,769.339966 
	C656.443115,769.882324 656.041138,767.026550 655.388977,764.846497 
	C654.538330,762.002625 653.856628,759.108215 653.106567,756.251831 
	C645.214294,757.602173 644.120361,759.272400 646.848877,766.480347 
	C655.865234,790.299438 664.977600,814.082275 674.046448,837.881592 
	C674.459351,838.965332 674.976501,840.047180 675.154907,841.175781 
	C675.742004,844.888733 674.043396,846.307678 670.606750,844.837219 
	C667.191956,843.376099 664.537842,840.793518 661.838257,838.295410 
	C645.821167,823.473999 629.799438,808.655701 613.119080,794.574524 
	C610.999084,792.784790 608.654968,791.260559 605.437805,790.283936 
	C613.449402,810.944519 621.460999,831.605103 629.394470,852.064209 
	C631.855164,852.507080 633.327209,851.165833 635.004639,850.550232 
	C636.946899,849.837402 638.683167,849.800842 639.716736,851.860535 
	C640.603516,853.627686 639.948853,855.446411 638.377930,856.200073 
	C631.779297,859.365479 624.996765,862.136658 617.813477,863.686218 
	C616.124451,864.050537 615.056396,862.753113 614.784668,861.052734 
	C614.480408,859.148438 615.250610,857.546875 617.052124,857.107910 
	C622.635071,855.747620 621.812195,852.491394 620.254089,848.390137 
	C612.211853,827.221802 604.323425,805.994995 596.415894,784.775635 
	C594.675842,780.106445 592.624878,776.392700 586.653564,779.586914 
	C584.846802,780.553406 583.434509,779.408325 582.662292,777.702026 
	C581.934998,776.095093 582.471863,774.612915 583.903442,773.799744 
	C589.145630,770.822021 594.764832,768.713196 600.649719,767.472107 
	C603.041260,766.967834 604.585876,769.051758 606.145874,770.478333 
	C622.373718,785.317505 638.557007,800.205383 654.760925,815.070801 
	C655.699646,815.932007 656.362061,817.269287 657.993408,817.125122 
	C659.302124,815.628418 658.165833,814.256104 657.675049,812.983154 
	C651.863403,797.911133 645.888123,782.901489 640.190857,767.786743 
	C638.584778,763.525879 636.157654,761.959778 631.873047,763.483154 
	C629.605347,764.289490 627.813049,763.760437 627.029053,761.463196 
	C626.107117,758.761475 627.843872,757.511047 630.120667,756.713074 
	C634.988831,755.006958 640.057678,753.703918 644.663513,751.455688 
	C653.030701,747.371460 660.251526,741.320923 668.525757,736.983459 
	C683.628174,729.066406 698.131836,720.263611 709.444092,707.108154 
	C711.039124,705.253235 712.948364,703.844238 715.473633,705.785156 
	C717.966614,707.701233 717.400330,709.904358 715.717407,711.846375 
	C713.856873,713.993469 714.374268,715.675354 716.076599,717.499878 
	C722.325256,724.197021 728.547546,730.918823 734.764893,737.645081 
	C736.622314,739.654541 738.455750,739.544006 740.375244,737.747192 
	C745.603088,732.853210 750.827026,727.954651 756.090393,723.098999 
	C757.971130,721.363953 757.953369,719.950500 756.037842,718.131531 
	C749.275452,711.709595 742.438904,705.346558 736.371216,698.242737 
	C734.473389,696.020691 732.764832,696.780273 730.666870,697.814880 
	C728.626404,698.821106 726.210083,700.118286 724.453918,697.388428 
	C722.855713,694.904175 724.886658,693.316467 726.403992,691.866638 
	C735.333862,683.334595 743.897827,674.508850 750.321594,663.834412 
	C751.698975,661.545593 753.743652,659.744568 756.515381,661.134216 
	C759.548096,662.654663 757.982300,665.021240 756.929565,667.119019 
	C754.971985,671.019714 758.054504,672.646545 760.440125,674.252441 
	C771.633118,681.786560 782.900574,689.210876 794.188171,696.603088 
	C801.011780,701.071899 807.466919,706.113831 814.756287,709.862061 
	C823.140259,714.172913 827.720337,713.039551 832.977478,705.328491 
	C840.272095,694.628967 839.299927,687.937439 828.903381,680.156982 
	C812.084778,667.570435 793.934265,656.945801 776.692505,644.980042 
	C774.284302,643.308655 772.932434,643.902344 771.438354,646.119141 
	C770.070435,648.148621 767.930664,649.756775 765.526489,648.294800 
	C762.737488,646.598877 764.435669,644.240723 765.676636,641.854370 
z"/>
<path fill="#000000" opacity="1.000000" stroke="none" 
	d="
M229.012665,621.033875 
	C214.713623,629.708801 199.636429,636.006104 184.993790,643.171326 
	C182.464584,644.409058 179.966675,645.842834 177.760086,647.575439 
	C174.768829,649.924194 173.056000,653.020630 173.237839,657.083984 
	C173.763214,668.823914 185.842041,677.394775 196.962265,673.821533 
	C202.243942,672.124451 206.861450,669.081055 211.743423,666.575073 
	C225.817276,659.350464 239.864105,652.073120 253.961533,644.894958 
	C257.227325,643.232117 259.841492,641.664429 257.252808,637.385986 
	C256.027252,635.360413 256.893921,633.438660 259.060455,632.444519 
	C261.239197,631.444763 262.652649,632.760498 263.437103,634.549866 
	C268.304291,645.652100 275.179291,655.404846 283.149109,664.461060 
	C284.516724,666.015076 285.467346,667.999329 283.443329,669.754089 
	C281.521301,671.420471 279.247559,671.426758 277.728302,669.344055 
	C274.886230,665.447876 272.430878,666.639771 269.592194,669.307617 
	C263.514587,675.019287 256.880890,680.071899 250.142807,684.965088 
	C247.173035,687.121765 246.841309,688.890381 249.382462,691.772278 
	C253.672913,696.638184 257.609161,701.821106 261.602692,706.942200 
	C263.540985,709.427734 265.480927,709.681335 267.921967,707.673096 
	C274.605835,702.174622 281.373047,696.777283 288.049255,691.269653 
	C290.474762,689.268677 292.274841,687.038757 290.391357,683.537903 
	C289.266968,681.447876 290.198334,679.545959 292.187256,678.480896 
	C294.214752,677.395142 295.246765,679.086304 296.146820,680.466675 
	C302.988800,690.960449 312.534271,698.786926 321.962097,706.732178 
	C322.725922,707.375854 323.521759,707.981506 324.296844,708.612061 
	C326.414459,710.335022 326.329498,712.337708 324.809906,714.313538 
	C323.321625,716.248657 321.388214,715.699158 319.998383,714.371399 
	C316.558868,711.085327 314.552338,712.710144 311.982391,715.737427 
	C299.160706,730.840576 286.121124,745.758728 273.160187,760.743713 
	C272.833405,761.121460 272.522797,761.513794 272.215698,761.907959 
	C264.778168,771.454712 264.788147,776.847656 272.253754,783.509583 
	C280.261108,790.654907 289.992340,790.829407 297.065491,783.119019 
	C307.641602,771.589722 317.723755,759.606628 327.989502,747.793518 
	C332.553284,742.541748 337.308044,737.436646 341.093231,731.934814 
	C340.575043,729.777649 338.937897,729.356384 337.849213,728.390625 
	C335.945984,726.702332 336.218079,724.852295 337.523865,723.061646 
	C338.807343,721.301636 340.493195,721.692078 341.900665,722.839233 
	C346.543671,726.623352 351.144653,730.461670 355.677979,734.376282 
	C357.236237,735.721802 357.630859,737.476562 356.227081,739.254944 
	C354.767548,741.104126 352.782593,740.897400 351.338867,739.664612 
	C347.037445,735.991882 344.828735,738.701294 342.176636,741.950623 
	C328.915161,758.198547 315.548859,774.366821 300.842194,789.354614 
	C286.555206,803.914795 263.310516,792.961121 257.814606,776.404114 
	C255.162567,768.414490 256.393921,761.617493 261.530853,754.943542 
	C274.347778,738.291260 289.112061,723.319092 302.353760,707.042175 
	C305.263306,703.465698 304.895111,701.696350 301.023773,699.859802 
	C299.075653,698.935608 297.982086,699.958679 296.586334,700.958252 
	C290.860962,705.058655 286.844543,711.093445 281.066559,715.027832 
	C266.614685,724.868591 252.282883,734.844116 238.715897,745.902832 
	C236.209457,747.945923 234.709457,749.596436 236.161713,752.928040 
	C237.077988,755.030029 236.955399,757.453064 234.576691,758.576721 
	C232.179825,759.708984 230.881424,757.632996 229.884613,755.954224 
	C226.620132,750.456055 221.413422,746.549377 217.984634,741.192444 
	C216.862061,739.438599 215.632385,737.827576 217.523773,735.873962 
	C219.420853,733.914368 221.377335,734.194397 223.266068,735.828186 
	C225.139099,737.448486 227.046463,738.800293 229.451904,736.911682 
	C238.993423,729.420532 248.507385,721.894348 258.421509,714.073486 
	C253.123871,707.255676 247.967316,700.601685 242.787430,693.965881 
	C241.519501,692.341614 240.176773,692.992065 238.885376,693.977539 
	C229.619507,701.048279 220.369843,708.140320 211.081955,715.182007 
	C209.170731,716.631104 209.398117,718.114441 210.476044,719.934265 
	C211.823441,722.208862 212.785263,724.874023 209.930237,726.498718 
	C207.249237,728.024292 205.717361,725.486084 204.267517,723.731934 
	C200.340912,718.981323 196.482315,714.174133 192.623611,709.367859 
	C191.329300,707.755676 190.133392,706.016968 191.951859,704.054321 
	C193.692154,702.176147 195.858612,702.661011 197.317154,704.104736 
	C200.211639,706.969849 202.489594,705.816223 205.099380,703.779724 
	C224.267441,688.822083 243.454315,673.888123 262.708252,659.041382 
	C265.313782,657.032104 266.621429,655.273804 264.622528,652.004028 
	C262.512024,648.551697 260.222290,649.971497 257.875916,651.296875 
	C240.177658,661.293213 221.811768,669.979919 203.705063,679.181091 
	C185.115891,688.627563 166.935226,675.757812 164.748886,656.139832 
	C163.433624,644.337952 168.643631,636.910706 178.667084,631.596436 
	C196.176285,622.313232 214.017319,613.712708 231.832733,605.053101 
	C235.517090,603.262207 239.506393,601.775757 236.476913,596.322449 
	C235.821625,595.142822 236.439651,593.674438 237.688889,592.825562 
	C239.142120,591.838196 240.658386,592.082642 241.800430,593.227417 
	C242.833359,594.262756 243.700180,595.539734 244.369614,596.848572 
	C247.172928,602.329529 249.870911,607.864441 252.615189,613.375671 
	C253.519058,615.190979 254.708130,617.178223 252.592743,618.760925 
	C250.510132,620.319153 248.004181,619.629822 246.869781,617.679932 
	C243.959503,612.677490 240.795120,614.567444 237.291153,616.661255 
	C234.721741,618.196594 232.000153,619.477234 229.012665,621.033875 
z"/>
<path fill="#000000" opacity="1.000000" stroke="none" 
	d="
M368.539001,226.510147 
	C370.526184,221.202133 375.684906,217.468307 374.197174,211.194595 
	C373.926636,210.053757 375.510284,209.425461 376.324646,208.614548 
	C381.067505,203.891434 382.383057,197.548264 384.013947,191.241943 
	C381.745331,194.037262 379.596375,196.940704 377.185883,199.607758 
	C369.718811,207.869629 359.170746,206.208771 354.527832,196.118927 
	C352.632721,192.000565 353.591980,189.939484 358.097382,189.850250 
	C361.847351,189.775970 364.400452,188.172516 366.641846,185.519623 
	C370.885590,180.496933 375.145203,175.487656 380.071198,169.679260 
	C373.346252,168.326370 367.810913,167.147461 364.851288,161.433517 
	C361.877167,155.691696 360.182220,149.604797 358.530792,143.680222 
	C360.783600,142.052155 362.368134,143.005905 363.756317,143.748138 
	C367.869263,145.947220 370.562164,144.365433 373.094482,140.986862 
	C375.521881,137.748306 376.655670,133.560928 380.154816,130.774918 
	C383.138611,133.010620 382.124939,135.741577 381.760345,138.223633 
	C380.556213,146.420013 378.843353,154.610504 382.252106,162.696823 
	C384.203186,163.017090 384.591309,161.531952 385.051422,160.381317 
	C389.005890,150.492020 393.057983,140.636337 395.899750,130.343658 
	C397.134155,125.872734 397.510376,121.506882 394.830170,117.342873 
	C393.996674,116.047951 393.477997,114.581261 394.764099,113.215843 
	C395.839996,112.073624 397.182037,112.368782 398.505432,112.668655 
	C404.184875,113.955589 409.033508,116.784019 413.205322,120.768478 
	C416.235168,123.662239 415.294891,126.766724 413.386505,129.826111 
	C407.834290,138.727158 402.276672,147.624832 396.732391,156.530838 
	C395.889801,157.884277 394.752777,159.135223 394.729919,160.996109 
	C397.086884,161.060165 397.729614,159.263916 398.504059,157.982346 
	C401.783691,152.555023 407.235504,150.494278 412.740448,148.503677 
	C414.927002,147.713028 417.063080,147.945236 418.720032,149.761841 
	C420.515503,151.730362 420.444641,153.979584 419.428070,156.291077 
	C417.058838,161.678482 413.283325,166.178253 410.089661,171.043732 
	C406.540161,176.451248 403.231232,181.979736 400.710602,187.896210 
	C402.290802,189.249252 403.527893,188.260529 404.583618,187.672989 
	C408.219635,185.649490 411.423309,186.173492 414.852020,188.408310 
	C418.815002,190.991379 420.706970,189.921768 420.945251,185.313736 
	C421.149414,181.366257 420.422699,177.839020 417.136902,174.981979 
	C413.556885,171.869125 414.070312,169.456436 418.539001,167.787994 
	C424.210785,165.670349 429.834167,165.991409 434.519623,170.100662 
	C438.747192,173.808350 437.538452,178.654907 435.963867,183.124603 
	C431.760773,195.055649 427.333252,206.907486 423.041382,218.807541 
	C422.366302,220.679306 421.700531,222.606461 421.432129,224.563095 
	C420.620941,230.477219 423.531799,233.452118 429.481384,232.707535 
	C438.536377,231.574280 446.930237,228.487747 454.618896,223.564224 
	C463.566864,217.834290 465.496246,211.642838 461.334595,201.860382 
	C460.163086,199.106567 458.704163,196.475006 457.376465,193.787674 
	C456.578003,192.171555 455.622070,190.584793 456.218872,188.701385 
	C458.527863,187.697876 459.451233,189.457352 460.481415,190.568649 
	C467.269257,197.890823 473.431580,205.789017 480.984497,212.407410 
	C484.347473,215.354279 482.415558,218.133835 480.120056,220.561966 
	C474.071747,226.959702 466.535950,231.254364 458.791595,235.175186 
	C450.375122,239.436310 441.208252,241.331940 432.021271,242.904495 
	C422.180084,244.589035 413.893707,237.616272 410.669495,225.455872 
	C408.766022,218.276749 410.370819,210.810745 408.834961,203.604660 
	C408.447449,201.786346 409.469879,198.937103 406.753143,198.662720 
	C404.124268,198.397186 403.978210,201.292496 403.671356,203.073486 
	C401.214691,217.333664 398.330200,231.554596 399.509369,246.186752 
	C399.775208,249.485031 399.516449,252.853958 399.205780,256.162811 
	C398.855011,259.898529 396.435699,260.895020 393.660278,258.781311 
	C388.087555,254.537262 382.588135,250.218735 383.525116,241.746399 
	C384.024841,237.227829 384.208862,232.459259 382.112823,227.818359 
	C379.761658,228.227448 379.441132,230.247009 378.751007,231.756287 
	C375.353760,239.185837 371.744934,246.507889 367.301788,253.367477 
	C365.874542,255.570953 364.811981,259.488251 361.390991,258.218018 
	C358.532898,257.156769 357.320618,253.394073 357.890869,250.526062 
	C359.265869,243.610794 360.015381,236.321548 365.512909,230.916061 
	C366.676208,229.772263 367.418335,228.200165 368.539001,226.510147 
M396.937958,210.664581 
	C397.830292,205.594284 400.461609,200.548615 397.210541,195.015945 
	C393.205688,198.993744 391.736420,203.992676 389.701782,208.631271 
	C387.217926,214.294052 388.574280,218.184509 394.416382,222.239243 
	C395.235535,218.538528 396.014923,215.017593 396.937958,210.664581 
z"/>
<path fill="#000000" opacity="1.000000" stroke="none" 
	d="
M648.307495,213.213242 
	C645.368652,224.572083 642.591675,235.573273 637.591125,245.797684 
	C635.965881,249.120605 634.530945,253.605225 630.004578,253.519867 
	C625.565796,253.436157 624.492981,248.886551 623.420593,245.594955 
	C620.778320,237.484222 613.694946,235.381638 607.031860,233.158829 
	C596.125977,229.520660 584.904724,226.961197 573.278748,227.076614 
	C570.461670,227.104584 567.625183,227.339905 564.837891,227.751907 
	C559.139038,228.594299 556.734741,227.321899 555.245361,221.746979 
	C552.968262,213.223282 553.010498,204.581467 555.062317,196.033005 
	C560.266846,174.349350 569.972107,154.389709 579.023926,134.185974 
	C579.584167,132.935577 580.338379,131.766602 581.963318,131.955582 
	C583.583496,132.144028 584.052429,133.435074 584.314880,134.792877 
	C585.656372,141.733032 584.700745,148.304840 581.351379,154.575287 
	C579.976013,157.150208 577.900452,159.434677 577.310242,162.572479 
	C585.227966,162.572479 592.780029,162.611313 600.331055,162.536758 
	C601.693665,162.523315 603.024231,161.870712 603.262329,160.309952 
	C603.474548,158.919037 602.305420,158.235962 601.288940,157.705536 
	C598.282043,156.136429 595.715149,154.072311 593.706543,151.336411 
	C592.897156,150.233841 592.161743,149.008514 593.005005,147.670013 
	C593.719727,146.535645 595.037781,146.642044 596.189148,146.736282 
	C597.678101,146.858185 599.152344,147.150040 600.637390,147.332184 
	C605.046814,147.873016 608.258972,145.621964 608.588013,141.779984 
	C608.883423,138.330170 606.107849,136.157974 601.244141,136.421295 
	C598.433289,136.573441 595.647461,137.221878 592.855896,137.681000 
	C591.252258,137.944763 589.641907,138.734421 587.916809,137.383743 
	C587.537720,134.559265 589.814087,133.339493 591.668701,132.233612 
	C599.484375,127.573433 607.493469,124.021439 617.135193,125.552559 
	C628.843628,127.411880 640.513977,129.056808 651.051575,135.030533 
	C656.821960,138.301773 660.606995,143.158569 663.156189,149.170547 
	C665.085571,153.720642 664.922607,157.821381 662.715515,162.495850 
	C656.418335,175.833328 654.250427,190.464523 650.497925,204.598038 
	C649.772705,207.329666 649.086060,210.071518 648.307495,213.213242 
M613.962341,199.574341 
	C622.101990,196.239182 622.101990,196.239182 620.398499,188.807388 
	C621.422668,187.551407 622.781921,187.779221 624.053162,188.146622 
	C627.778381,189.223328 632.168640,190.428253 632.844727,194.552902 
	C633.567993,198.965210 628.831116,200.147018 625.794128,201.852829 
	C622.824341,203.520889 619.190979,203.930939 616.294495,206.444672 
	C616.941345,207.261932 617.348267,207.998108 617.950500,208.499649 
	C621.027344,211.061859 624.107727,213.625183 626.302124,217.029236 
	C627.493652,218.877563 627.635315,220.919739 625.998535,222.539978 
	C624.247559,224.273224 622.709717,222.927856 621.170776,221.835648 
	C616.424866,218.467270 610.229980,216.907562 607.774658,210.675476 
	C607.352417,209.603836 605.850769,208.895676 604.749817,208.167618 
	C603.052307,207.045074 601.462769,207.249908 600.697449,209.261520 
	C599.243530,213.083130 596.755310,216.573807 596.577515,221.690796 
	C607.641846,223.192734 618.144348,226.252197 626.584473,234.046310 
	C629.051331,230.423630 629.908508,227.376633 630.818665,224.362427 
	C633.608154,215.124207 636.600342,205.938705 639.079834,196.617310 
	C642.968079,181.999954 646.632507,167.319275 650.119202,152.600876 
	C651.470154,146.897888 649.174683,142.706543 644.249146,141.604126 
	C637.924805,140.188614 631.479736,139.302933 625.072998,138.274033 
	C623.817383,138.072388 622.348267,137.838364 621.608215,139.547333 
	C621.782593,141.934021 623.912537,142.529007 625.512512,143.606979 
	C628.361023,145.526047 632.497864,146.986359 631.608826,151.189621 
	C630.764648,155.180283 626.439697,154.636795 623.296692,155.339203 
	C620.154358,156.041458 617.225769,156.944000 616.579712,160.713074 
	C618.482361,162.463806 620.574951,161.686646 622.488159,161.837769 
	C627.301331,162.217957 632.171326,162.393326 636.460449,164.977768 
	C638.974670,166.492691 640.433105,168.803223 639.311401,171.717148 
	C638.099792,174.864426 635.472412,174.048874 632.931091,173.481186 
	C628.819702,172.562790 624.768799,170.965881 620.349976,171.593277 
	C620.451416,172.210175 620.393799,172.618347 620.570984,172.815338 
	C621.793152,174.174133 623.088074,175.467361 624.315247,176.821869 
	C627.781250,180.647491 627.354370,182.771667 622.444702,184.297180 
	C616.080017,186.274780 610.878479,190.092270 605.807312,194.157700 
	C604.433716,195.258881 602.957397,196.512894 603.384888,198.766495 
	C606.522888,200.636993 609.692871,201.805283 613.962341,199.574341 
M581.735779,199.459229 
	C586.344177,197.331512 591.123840,195.441040 595.005737,191.107803 
	C591.312561,189.617142 588.982239,191.079758 586.561707,191.355270 
	C584.078491,191.637924 581.499146,192.523651 579.807129,189.814896 
	C578.182190,187.213623 578.205627,184.318146 579.482117,181.689758 
	C580.784973,179.007004 583.413574,179.198944 586.025757,179.391449 
	C591.062805,179.762634 594.952271,176.763794 596.422791,171.580276 
	C592.508667,170.913712 588.830383,172.171799 585.106445,172.874298 
	C580.413879,173.759521 578.671082,168.573334 574.725037,167.752716 
	C572.068542,170.831131 571.066040,174.587540 569.472168,178.024811 
	C564.289490,189.202057 562.050293,201.086853 561.277832,213.285217 
	C561.122375,215.739807 560.968140,218.606110 564.658447,218.809540 
	C571.469421,219.185028 578.283875,219.499573 585.098328,219.806152 
	C586.873657,219.886017 588.512390,219.546829 588.860779,217.406876 
	C589.643738,212.598129 590.644287,207.838226 592.828979,202.391769 
	C586.719788,205.381958 581.518066,207.605042 575.994263,208.829361 
	C573.724182,209.332520 570.394165,210.503830 570.007263,206.795731 
	C569.688599,203.741501 571.155090,200.949371 575.096069,200.691833 
	C577.069275,200.562912 579.016418,200.034683 581.735779,199.459229 
M609.019409,180.480042 
	C610.167603,179.825668 611.361938,179.238983 612.450928,178.497589 
	C613.509155,177.777100 614.952454,177.048935 614.193115,175.412048 
	C613.531067,173.984909 611.893066,173.692474 610.754272,174.230820 
	C607.886902,175.586304 604.674072,176.753601 603.740356,180.291992 
	C605.312927,182.357224 606.861389,181.223831 609.019409,180.480042 
z"/>
<path fill="#000000" opacity="1.000000" stroke="none" 
	d="
M843.536865,264.766754 
	C844.874146,271.511871 843.504150,274.006714 837.516052,276.274506 
	C835.356812,277.092255 833.183228,277.872162 830.829224,278.738068 
	C831.317017,281.356079 833.645508,281.591339 835.170837,282.591217 
	C840.260193,285.927429 844.400085,289.814209 844.207825,296.533356 
	C844.150757,298.531158 844.276550,300.855438 842.201721,301.828583 
	C840.025391,302.849304 838.496216,301.042328 837.047729,299.676331 
	C831.956665,294.875336 826.882690,290.056152 821.804932,285.241058 
	C820.478027,283.982880 819.264709,282.484924 817.317383,282.246887 
	C815.563599,282.032471 813.582642,280.775055 812.062378,282.272980 
	C810.160828,284.146729 812.565552,285.510773 813.119446,287.082916 
	C814.004272,289.594513 815.147827,292.030792 815.840393,294.591309 
	C817.708984,301.499847 816.551086,303.921936 810.814636,308.042419 
	C807.653198,310.313385 803.750183,311.979309 801.707825,315.857391 
	C804.904175,317.693695 806.690857,312.528381 808.868958,315.059753 
	C810.378296,316.813965 810.550293,319.657166 811.600037,321.881561 
	C813.689148,326.308746 817.326782,330.209656 815.370300,335.800720 
	C813.828796,340.205841 812.119385,340.771484 808.685913,337.584290 
	C804.413391,333.618103 800.200623,329.587524 795.924622,325.625092 
	C793.034485,322.946869 790.280762,322.846252 787.108704,325.563995 
	C784.349182,327.928345 781.130005,329.779602 778.019409,331.704895 
	C774.072205,334.148071 773.807678,335.375763 777.349609,338.291473 
	C780.619080,340.982880 783.562866,343.741150 784.741821,348.048309 
	C785.963318,352.511353 785.227600,356.671326 783.222351,360.631622 
	C781.756897,363.525848 779.505005,363.671448 777.973999,360.840179 
	C770.772400,347.522888 759.960449,338.007782 747.223083,330.189117 
	C740.751770,326.216797 740.339172,323.370453 742.558105,316.291840 
	C743.750244,312.489044 745.606445,312.379150 748.350342,314.626617 
	C750.539856,316.420074 752.636536,318.352264 754.961731,319.950287 
	C762.638916,325.226624 771.896423,323.218292 777.579224,314.826599 
	C774.556885,312.613922 771.453369,310.456055 768.475647,308.136719 
	C763.130127,303.973022 762.085510,300.755432 763.907349,294.702576 
	C765.097961,290.746490 766.872925,290.163818 770.482788,292.938721 
	C775.362915,296.690125 779.968262,300.762451 785.232666,304.052277 
	C788.354370,306.003113 790.425720,305.758362 793.147522,303.429169 
	C799.974854,297.586853 807.604492,292.426758 807.921570,281.535004 
	C801.623962,281.468414 796.024780,278.536011 790.239746,276.142120 
	C789.023132,275.638702 787.589966,274.881165 786.445679,275.906921 
	C780.103333,281.592499 771.329773,282.827087 764.657776,287.921204 
	C763.059814,289.141327 761.396790,290.227264 760.224976,291.882629 
	C758.302612,294.598206 757.145203,298.417053 752.355225,296.574738 
	C751.702087,296.323517 750.346191,297.546661 749.472961,298.275513 
	C741.293518,305.102570 733.163086,311.988373 724.979248,318.810120 
	C723.558594,319.994324 722.154053,322.350128 719.981995,320.305542 
	C718.098511,318.532593 719.521362,316.605621 720.551025,314.886566 
	C725.472107,306.670898 733.149902,301.243683 740.353760,295.337097 
	C741.880981,294.084900 743.388367,292.808502 744.970764,291.488281 
	C737.360046,286.166718 736.867493,285.672241 730.966553,291.433075 
	C724.768311,297.484192 718.055420,297.956177 710.427551,296.143616 
	C709.247131,295.863129 708.093384,295.614197 707.701782,294.324615 
	C707.304688,293.016724 708.105469,292.052948 709.002197,291.291565 
	C711.790100,288.924438 715.125977,288.060852 718.707336,287.883820 
	C721.360413,287.752686 724.001648,287.522705 725.841980,284.500244 
	C722.451416,282.324707 718.744568,280.617584 718.802490,275.760681 
	C718.874146,269.748932 720.899780,268.079803 726.513000,270.352753 
	C729.933472,271.737762 733.252991,273.132141 737.055237,273.019043 
	C739.996643,272.931519 741.461853,272.013611 741.801941,268.697327 
	C742.608276,260.834686 745.396790,258.462463 753.091248,258.834778 
	C758.072876,259.075806 762.729370,259.022217 766.274597,254.733963 
	C767.083923,253.754898 768.516418,252.913223 769.848999,253.831329 
	C771.425598,254.917572 770.784119,256.503387 770.211121,257.904846 
	C769.061035,260.717468 767.135681,263.028992 765.298767,265.403168 
	C764.089966,266.965515 761.259399,268.282440 763.553223,270.733643 
	C765.566162,272.884796 768.274292,274.135071 771.236938,272.606995 
	C775.148682,270.589325 778.349731,267.644867 780.721802,263.932861 
	C781.978210,261.966736 783.024658,260.902130 785.464661,262.475494 
	C787.990845,264.104462 789.344238,262.339111 790.418884,260.175598 
	C788.791138,257.858765 786.396484,257.051819 784.130127,256.106689 
	C782.288208,255.338577 780.227966,255.002777 778.517456,254.030426 
	C775.408752,252.263336 771.017944,251.037216 770.985107,246.809082 
	C770.948547,242.114365 774.551086,239.031342 778.624939,235.131927 
	C780.504333,244.473633 788.177002,246.858200 794.000000,251.227264 
	C796.783508,253.315781 798.724060,252.762955 800.403809,249.743103 
	C803.006836,245.063324 805.284607,240.270386 806.644043,235.075058 
	C807.062622,233.475418 807.206909,231.490250 809.419189,231.544937 
	C811.199707,231.588943 811.540344,233.347610 812.204834,234.696136 
	C817.226624,244.887421 815.148804,253.355042 805.613586,259.968018 
	C808.482056,263.473145 811.836609,265.617737 814.985413,267.976929 
	C816.567993,269.162598 818.490845,269.254669 820.242798,268.509918 
	C825.769409,266.160583 831.215027,263.756104 834.683899,258.331787 
	C837.231567,254.347977 839.165894,254.550964 841.350464,258.782074 
	C842.255493,260.535034 842.747559,262.501190 843.536865,264.766754 
M792.005859,272.948273 
	C797.624207,272.948273 803.242615,272.948273 810.012695,272.948273 
	C800.406250,263.295105 793.272644,263.412872 788.034241,272.095947 
	C788.825378,273.267822 790.055969,272.935699 792.005859,272.948273 
M739.694824,278.316437 
	C742.812744,280.876404 746.539307,282.271851 750.198669,283.790497 
	C753.113281,285.000031 755.215759,284.364929 756.411255,280.993958 
	C751.075928,277.975983 745.264038,277.508789 739.666504,276.387085 
	C738.214233,276.096069 737.975342,277.031158 739.694824,278.316437 
z"/>
<path fill="#000000" opacity="1.000000" stroke="none" 
	d="
M482.487152,873.791992 
	C471.821472,870.074341 466.614838,862.713013 466.629608,851.753845 
	C466.656738,831.584534 469.232239,811.546814 469.732697,791.403748 
	C469.802979,788.575073 470.860962,785.277405 466.789551,783.848816 
	C462.848572,782.465881 460.133972,783.845154 457.652008,786.877319 
	C448.370392,798.216675 438.761597,809.333252 430.609528,821.509338 
	C424.207886,831.070984 422.938019,842.700745 419.510559,853.452148 
	C418.894196,855.385681 419.947510,856.546204 421.751099,857.282104 
	C423.281342,857.906494 424.831085,858.612244 426.152557,859.581482 
	C427.387115,860.487000 428.179230,861.921387 427.557190,863.535461 
	C426.894379,865.255432 425.252991,865.535767 423.769135,865.140930 
	C415.087646,862.831360 406.211090,861.196533 397.815704,857.888794 
	C395.817841,857.101746 394.342133,855.645203 395.220764,853.224121 
	C396.109955,850.773987 398.116211,850.525696 400.139557,851.513672 
	C405.152985,853.961670 406.841095,851.468018 408.016479,846.966431 
	C409.781525,840.206482 411.979767,833.557068 414.087677,826.890381 
	C414.864014,824.434998 414.917908,821.944153 414.697540,819.469177 
	C413.414337,805.057068 412.058746,790.651245 410.687378,776.247131 
	C410.332886,772.523926 409.430756,769.079529 406.005371,766.772217 
	C404.036072,765.445740 403.090973,763.430725 404.403625,761.138977 
	C405.604980,759.041504 407.594971,759.786743 409.329010,760.294922 
	C415.720215,762.167603 422.107605,764.057312 428.458832,766.059814 
	C430.779663,766.791565 432.984070,768.142334 432.483215,770.981689 
	C431.924042,774.151794 429.199249,773.147888 427.185425,772.953003 
	C424.863678,772.728333 423.228668,772.952026 423.197083,775.848572 
	C423.061249,788.308655 424.318939,800.656250 425.657043,812.900818 
	C427.766296,813.412476 428.495300,812.104797 429.166504,811.053772 
	C434.914093,802.054443 441.169678,793.436707 448.214386,785.404785 
	C450.581940,782.705261 451.286560,780.390686 447.409485,778.269958 
	C445.366821,777.152710 444.256958,774.990479 445.296478,772.716370 
	C446.554077,769.965393 448.985504,771.088989 450.979370,771.764954 
	C462.124115,775.543518 473.517639,777.536865 485.327576,777.117188 
	C487.501953,777.039978 490.553864,776.667664 491.051605,779.751953 
	C491.536469,782.756348 489.087799,784.183533 486.552246,784.839966 
	C483.933777,785.517822 483.275513,787.233643 483.106354,789.617493 
	C482.187805,802.564392 481.134613,815.501953 480.263245,828.451843 
	C479.749054,836.093201 479.307739,843.747864 479.151611,851.402954 
	C478.922302,862.645935 483.139465,867.458557 493.170471,867.914612 
	C503.666046,868.391846 511.967804,861.794067 512.719666,852.093506 
	C513.491333,842.136475 514.065308,832.162231 514.589600,822.188354 
	C515.114075,812.212158 515.374573,802.221558 515.950317,792.248779 
	C516.158569,788.641357 515.661072,786.008423 511.432068,785.420105 
	C509.191589,785.108398 507.762695,783.676208 508.182739,781.230713 
	C508.628540,778.635376 510.582062,778.442810 512.771973,778.622253 
	C517.750183,779.030273 522.741455,779.283997 527.716187,779.726685 
	C529.537598,779.888794 531.662231,780.245789 531.784912,782.593445 
	C531.896851,784.737183 530.305481,786.026001 528.302673,786.143555 
	C524.219849,786.383301 523.529846,789.117126 523.346313,792.326050 
	C522.320129,810.274353 520.107300,828.256165 520.592651,846.164368 
	C521.224731,869.484985 500.519287,880.184448 482.487152,873.791992 
z"/>
<path fill="#000000" opacity="1.000000" stroke="none" 
	d="
M257.267456,267.507996 
	C260.115875,270.191010 258.345856,272.736755 257.512726,275.107788 
	C255.161057,281.800446 255.247284,288.440643 257.329010,295.510559 
	C259.138794,294.343384 258.842285,292.482300 259.405945,291.109039 
	C261.224274,286.679077 263.840515,283.137726 269.023651,282.840393 
	C274.022003,282.553619 278.188690,284.351593 280.765015,288.891602 
	C282.571289,292.074646 284.328064,295.293915 285.921997,298.586578 
	C287.115662,301.052338 288.746216,301.647858 291.158264,300.498322 
	C295.206879,298.568817 299.271973,296.673706 303.318726,294.740295 
	C309.238861,291.911774 315.546112,291.785767 321.891998,292.171661 
	C323.848846,292.290741 326.251831,292.508820 326.896912,294.753326 
	C327.671143,297.447296 325.131348,298.406494 323.417328,299.586517 
	C315.517181,305.025574 306.772430,308.644348 297.565948,311.135925 
	C293.246643,312.304901 291.609772,314.299255 291.883209,319.239502 
	C292.511444,330.587463 288.639679,340.162781 278.155487,346.096436 
	C277.144073,346.668854 275.997559,347.176880 275.251068,348.015167 
	C270.136719,353.758484 266.338654,352.538879 261.618683,345.162170 
	C259.746155,342.235718 259.983307,338.405945 257.371948,335.527985 
	C255.083466,337.065094 253.745804,339.138397 252.404282,341.197906 
	C251.592850,342.443604 250.896072,344.174072 249.062897,343.458313 
	C247.017685,342.659698 247.482361,340.608795 247.925568,339.103271 
	C249.101273,335.109680 250.597336,331.202728 253.020599,327.767792 
	C255.165054,324.728058 255.785706,321.721710 254.716019,317.950928 
	C252.995056,311.884369 251.948135,305.627380 250.589462,299.456818 
	C250.165802,297.532745 249.776321,295.573792 248.196671,293.830017 
	C245.705139,295.265564 245.512848,297.665009 245.359299,299.881653 
	C245.129547,303.198151 245.292068,306.539825 245.158417,309.865601 
	C245.058228,312.359161 245.006714,315.096069 242.385910,316.384033 
	C239.770691,317.669220 237.543350,316.019714 235.471359,314.660065 
	C228.313766,309.963135 227.836487,308.331970 229.999466,299.916199 
	C231.604462,293.671448 231.126831,287.370361 229.777588,281.121307 
	C229.484634,279.764496 229.016876,278.430237 227.291214,278.553375 
	C225.878342,278.654144 225.488434,279.864807 225.205093,281.023956 
	C223.823288,286.677032 222.402649,292.321472 221.103363,297.993591 
	C220.120789,302.283081 218.064362,304.140930 213.680801,301.842285 
	C212.365326,301.152435 210.886902,300.777740 209.495468,300.227539 
	C205.747452,298.745514 204.809036,296.369843 205.976944,292.331207 
	C209.467056,280.262299 205.429398,270.171448 196.843964,261.617981 
	C193.790939,258.576324 194.109879,255.910370 198.244431,254.708054 
	C201.748215,253.689163 205.387833,253.097763 208.996109,252.487106 
	C214.472778,251.560211 216.257568,252.943253 217.015213,258.474640 
	C217.351852,260.932343 216.873322,263.500824 217.982788,265.848389 
	C218.174438,266.253937 218.573196,266.561584 218.859680,266.895142 
	C220.525330,266.395721 220.611572,264.887604 221.174210,263.762970 
	C223.947327,258.219971 229.686996,255.557419 235.731934,256.992096 
	C238.527084,257.655487 239.408813,259.545746 239.353531,262.163269 
	C239.223434,268.322388 239.068512,274.481384 239.004852,280.641296 
	C238.980103,283.037384 238.527863,285.534821 239.934525,288.234894 
	C243.457077,285.389832 242.619690,281.632294 243.161362,278.386993 
	C244.486862,270.445404 248.977737,266.770508 257.267456,267.507996 
M279.302704,323.575287 
	C279.357025,321.893097 279.379333,320.226318 277.424927,319.512390 
	C266.642426,324.387482 264.445038,328.838867 267.700775,339.252777 
	C268.079926,340.465515 268.232330,342.018372 269.838989,342.326904 
	C271.397278,342.626160 272.273560,341.389801 273.066406,340.380890 
	C276.769135,335.668945 278.282013,330.106445 279.302704,323.575287 
M262.393707,312.118561 
	C262.556183,315.182495 264.019470,316.019470 266.636963,314.438690 
	C269.058502,312.976227 271.393372,311.368317 273.743744,309.790741 
	C274.895813,309.017395 276.023041,307.962097 275.517609,306.511963 
	C273.837830,301.692352 271.717896,297.097839 267.083771,292.713745 
	C265.365143,299.567596 263.885590,305.467957 262.393707,312.118561 
z"/>
<path fill="#000000" opacity="1.000000" stroke="none" 
	d="
M218.554840,497.659302 
	C217.851486,495.059357 216.257950,494.796326 214.202438,494.852814 
	C205.207886,495.100037 196.209991,495.288513 187.212479,495.333221 
	C183.670563,495.350800 182.138962,496.206451 182.730301,500.301941 
	C183.632233,506.548309 183.911270,512.900879 184.151886,519.219849 
	C184.277267,522.512329 185.266571,524.172668 188.836044,523.955627 
	C197.646561,523.420044 206.467911,523.065247 215.282944,522.600159 
	C217.646225,522.475525 219.379898,521.420044 220.163666,519.025085 
	C220.965485,516.574890 221.978928,513.926331 225.197769,514.601685 
	C228.510727,515.296814 227.034714,518.382935 227.402908,520.473755 
	C228.420181,526.250549 228.047302,532.107056 228.215652,537.931091 
	C228.268356,539.755188 228.359619,541.833557 225.802689,542.133301 
	C223.734283,542.375793 222.050369,541.415100 221.603516,539.390259 
	C220.670959,535.164490 217.791824,535.130188 214.358536,535.347229 
	C190.592377,536.849365 166.865524,539.109375 143.030930,539.311218 
	C139.485016,539.341187 137.214691,540.102234 137.205109,544.189453 
	C137.199951,546.389282 136.167343,548.144104 133.618698,548.104126 
	C130.909027,548.061646 129.884415,546.326416 129.777054,543.834473 
	C129.483246,537.016357 129.151611,530.199768 128.896545,523.380249 
	C128.835129,521.738647 128.666901,519.763489 130.817764,519.299194 
	C132.930664,518.843018 134.588562,520.143494 134.970856,522.040588 
	C135.765579,525.984253 138.192902,526.308472 141.575073,526.117676 
	C152.042755,525.527283 162.523621,525.140137 173.003830,524.820190 
	C176.197479,524.722778 177.438995,523.625610 177.125748,520.262695 
	C176.523712,513.799438 176.166321,507.305359 175.965057,500.816071 
	C175.855652,497.288300 174.242035,496.155579 170.944427,496.368073 
	C160.476624,497.042511 150.006226,497.701508 139.528244,498.177399 
	C136.678238,498.306885 135.269012,499.371124 134.869537,502.181335 
	C134.525070,504.604492 133.608887,506.903503 130.605789,506.785706 
	C127.313263,506.656525 127.279236,503.842987 127.170128,501.610870 
	C126.852989,495.122894 126.792877,488.622498 126.618309,482.127319 
	C126.571884,480.399963 126.517143,478.516663 128.745178,478.263550 
	C130.904800,478.018188 132.950684,478.851837 133.196121,481.265228 
	C133.637726,485.607483 136.207001,485.334564 139.559830,485.157593 
	C163.007416,483.919891 186.463272,482.819336 209.924805,481.883087 
	C214.332718,481.707184 217.837936,481.247620 218.569397,475.940857 
	C218.842819,473.957153 220.346191,472.718353 222.530975,472.937653 
	C224.773880,473.162842 225.682846,474.802094 225.741104,476.765991 
	C225.958450,484.092255 226.057648,491.422241 226.164108,498.751404 
	C226.190796,500.589417 225.614319,502.060638 223.429901,502.193817 
	C220.462250,502.374725 219.376572,500.406189 218.554840,497.659302 
z"/>
<path fill="#000000" opacity="1.000000" stroke="none" 
	d="
M827.626099,551.506714 
	C842.081299,547.050354 856.153259,542.699036 871.527100,537.945068 
	C866.598206,535.223816 862.607727,535.256287 858.841370,534.629395 
	C845.380859,532.388855 831.872070,530.434265 818.426147,528.112732 
	C815.211975,527.557800 813.325439,527.780151 812.788574,531.422668 
	C812.549683,533.043518 811.653931,534.546143 810.013123,535.379028 
	C807.201050,536.806458 804.651855,535.379517 805.129761,532.340820 
	C806.187927,525.612061 807.540100,518.928589 808.832886,512.238342 
	C809.225769,510.205017 810.487793,508.895020 812.670471,509.099823 
	C815.056702,509.323700 815.719849,511.155487 815.328247,513.103271 
	C814.172546,518.852295 817.057800,520.478455 822.211548,521.363831 
	C846.987671,525.620300 871.721741,530.111938 896.618408,533.646057 
	C899.744873,534.089905 904.324097,533.754944 904.725769,537.833679 
	C905.133606,541.975525 900.504822,542.541992 897.533752,543.492188 
	C876.446838,550.236389 855.286865,556.752075 834.166382,563.392090 
	C830.100159,564.670532 825.856567,565.511719 821.610107,567.891052 
	C824.447937,570.240967 827.583313,569.800598 830.381226,570.261108 
	C848.445190,573.233826 866.538391,576.029907 884.595520,579.042297 
	C888.272400,579.655640 890.320740,578.822876 890.911316,574.905518 
	C891.375061,571.829224 893.235840,569.938721 896.530762,570.988892 
	C899.784119,572.025818 898.510376,574.573364 898.072754,576.843994 
	C897.033813,582.234314 896.161682,587.656616 895.135254,593.049438 
	C894.654907,595.573303 893.971191,598.310181 890.543823,597.706238 
	C887.306763,597.135803 887.539124,594.484985 888.191223,592.156494 
	C889.559570,587.271057 886.068970,586.944641 882.932007,586.404663 
	C865.057739,583.328186 847.167725,580.343445 829.295288,577.256836 
	C823.225647,576.208618 817.164368,575.077332 811.151367,573.748230 
	C807.557495,572.953918 805.386108,573.776184 804.615967,577.624756 
	C804.118652,580.109741 803.405396,582.801086 799.866150,582.010193 
	C796.238892,581.199707 797.093506,578.494446 797.562744,576.015381 
	C797.593567,575.852417 797.590454,575.683350 797.612488,575.518372 
	C799.892761,558.401611 796.226624,561.754028 814.399109,555.714600 
	C818.663818,554.297241 822.960693,552.976746 827.626099,551.506714 
z"/>
<path fill="#000000" opacity="1.000000" stroke="none" 
	d="
M204.667297,545.028687 
	C211.102844,545.806885 216.803421,547.373047 222.315109,549.937073 
	C238.322906,557.383911 245.719193,577.542480 228.547211,594.654846 
	C215.642181,607.515137 198.761734,612.502686 181.009064,614.120789 
	C173.456238,614.809265 165.814911,614.827209 158.386688,611.874512 
	C136.131424,603.028015 131.426529,579.991760 148.807480,563.561096 
	C155.029236,557.679565 162.153793,553.203369 170.435089,550.594299 
	C181.446274,547.125061 192.567154,544.545410 204.667297,545.028687 
M190.387634,597.765015 
	C198.261322,596.228577 205.880737,593.824219 213.159683,590.496704 
	C218.962402,587.844116 224.137283,584.267334 227.828171,578.831360 
	C231.491425,573.436035 231.399765,569.759033 227.094254,564.900696 
	C223.487671,560.830994 218.784714,558.769775 213.491348,558.278748 
	C198.038300,556.845154 183.495361,560.974609 169.186691,566.053955 
	C162.106064,568.567444 155.254059,571.738403 150.189224,577.597961 
	C146.873703,581.433777 143.658813,585.708679 145.992081,591.080811 
	C148.543732,596.955750 153.153595,600.650452 159.889694,600.848633 
	C169.901566,601.143311 179.846832,600.632263 190.387634,597.765015 
z"/>
<path fill="#000000" opacity="1.000000" stroke="none" 
	d="
M885.271973,513.452271 
	C864.337708,520.858948 844.156311,520.398743 824.274231,510.912018 
	C812.380798,505.237122 802.819946,489.851318 809.029358,476.050385 
	C810.360840,473.091034 809.452087,470.676819 807.441772,468.276093 
	C805.333496,465.758331 805.651550,463.619049 809.302795,462.982239 
	C816.354675,461.752319 823.411621,460.545868 830.484497,459.445282 
	C832.805359,459.084137 835.535828,458.870880 836.453552,461.657745 
	C837.397888,464.525330 834.848389,465.814636 832.843750,466.892761 
	C829.918884,468.465790 826.744812,469.574799 823.816772,471.142609 
	C812.242676,477.339966 811.796204,489.848114 822.824280,497.026520 
	C826.490417,499.412872 830.397827,501.241699 834.709534,502.065094 
	C853.353455,505.625458 871.758057,506.042114 889.479431,497.770355 
	C894.840454,495.268005 898.991028,491.823761 900.261230,485.585632 
	C902.031433,476.891327 896.786011,470.852478 887.995850,471.559448 
	C883.687256,471.905945 879.348328,472.032562 875.025513,471.992889 
	C871.554504,471.961090 869.329102,472.863220 868.855896,476.788483 
	C868.600952,478.903015 868.504150,481.905121 865.073059,481.622925 
	C861.578247,481.335480 860.874634,478.627808 860.993774,475.806885 
	C861.316650,468.159088 861.974121,460.525330 861.681885,452.857025 
	C861.622009,451.287445 862.018860,449.773926 863.836060,449.367218 
	C865.880920,448.909546 867.272888,450.154144 867.489319,451.891235 
	C868.441528,459.534576 873.793091,459.108673 879.282959,458.624146 
	C885.085205,458.112091 890.886353,457.578156 896.695435,457.156647 
	C900.788879,456.859711 903.410400,457.923279 901.543274,462.859497 
	C900.985840,464.333252 901.588867,465.750824 902.351440,467.129242 
	C913.559448,487.387970 908.431824,502.986816 887.465881,512.515320 
	C886.859802,512.790771 886.244507,513.045837 885.271973,513.452271 
z"/>
<path fill="#000000" opacity="1.000000" stroke="none" 
	d="
M824.096802,638.929077 
	C812.465576,630.271545 801.119568,621.827209 789.764465,613.394897 
	C787.495056,611.709595 785.029419,610.223816 784.265015,607.199158 
	C782.413147,599.871033 785.882996,596.644775 793.955200,597.976624 
	C821.032959,602.444275 848.127747,606.809631 875.200500,611.307068 
	C878.495605,611.854431 881.074158,611.601440 882.764587,608.285828 
	C883.983459,605.895264 886.150635,605.676331 888.325562,606.805542 
	C890.836243,608.109131 889.828369,610.239075 889.059631,612.038879 
	C886.249756,618.617432 883.333862,625.150757 880.444092,631.695007 
	C879.775635,633.208679 879.195007,635.104492 877.017639,634.545166 
	C874.798950,633.975098 873.482910,632.076233 874.102478,629.978088 
	C875.614075,624.860107 872.544189,624.001587 868.736389,623.432800 
	C862.815491,622.548401 856.895325,621.646912 850.999390,620.612793 
	C848.254761,620.131409 846.575500,621.039795 845.472595,623.579712 
	C843.684204,627.698364 841.838440,631.800110 839.804504,635.800964 
	C838.695251,637.982971 838.905273,639.410034 840.964233,640.852417 
	C846.552368,644.767212 852.073364,648.780762 857.548828,652.852173 
	C860.334961,654.923950 862.511597,655.406311 864.115967,651.533142 
	C865.024902,649.338867 866.794800,647.857300 869.275940,648.958313 
	C872.138550,650.228638 871.571533,652.842285 870.689575,655.003906 
	C868.427185,660.548645 865.938232,666.001953 863.480225,671.465027 
	C862.871216,672.818604 862.157532,674.367188 860.216919,673.836792 
	C858.190552,673.282959 856.928467,671.747620 857.458801,669.723999 
	C858.683533,665.051147 856.019958,662.903748 852.680725,660.483765 
	C843.115967,653.551880 833.795410,646.282959 824.096802,638.929077 
M838.950989,618.922119 
	C827.377625,615.841797 815.477905,614.711487 803.489502,613.270691 
	C813.195312,620.387939 822.901123,627.505188 833.298462,635.129456 
	C835.138245,629.218384 838.221924,624.826660 838.950989,618.922119 
z"/>
<path fill="#000000" opacity="1.000000" stroke="none" 
	d="
M361.130005,761.128906 
	C365.396820,756.428040 369.392365,751.958984 373.438171,747.535889 
	C375.789490,744.965454 383.832947,744.298035 386.355072,746.534058 
	C388.365265,748.316223 387.318756,750.565674 386.812378,752.601807 
	C380.906708,776.347412 374.948578,800.079956 369.043579,823.825745 
	C368.281464,826.890503 367.898621,830.054016 367.055450,833.092834 
	C366.121643,836.458252 366.242615,839.252686 369.494965,841.387085 
	C371.423401,842.652649 371.833191,844.693970 370.739441,846.677673 
	C369.503998,848.918335 367.497894,847.929260 365.886841,847.218018 
	C359.494965,844.396118 353.149506,841.467773 346.812408,838.523865 
	C344.757599,837.569336 343.818695,835.997070 344.507996,833.643677 
	C345.226105,831.191895 346.920013,830.482483 349.127258,831.218445 
	C352.300873,832.276550 353.839172,830.911255 354.627319,828.024231 
	C356.335876,821.765930 358.008209,815.496826 359.810303,809.265381 
	C360.468689,806.988831 360.102020,805.549866 357.779816,804.467407 
	C353.710358,802.570618 349.749146,800.434631 345.790802,798.309143 
	C343.688477,797.180237 341.710663,796.743347 339.894928,798.693726 
	C335.359558,803.565491 330.820129,808.434387 326.355896,813.370911 
	C324.235016,815.716248 323.928558,817.916321 327.013550,819.958618 
	C329.094147,821.336121 330.428314,823.447998 328.885559,825.939270 
	C327.415192,828.313721 325.003082,827.642151 323.056122,826.723206 
	C318.092468,824.380371 313.223328,821.832703 308.363861,819.276672 
	C307.021332,818.570496 305.750854,817.496155 306.306641,815.711304 
	C306.898712,813.809998 308.284668,812.286133 310.348419,812.717834 
	C314.523590,813.591309 316.644592,811.230591 319.086761,808.446228 
	C332.921326,792.672913 346.930298,777.052551 361.130005,761.128906 
M353.454773,782.954041 
	C351.459015,785.519043 348.535706,787.377136 347.280792,790.822998 
	C350.647278,793.835510 354.845947,795.047791 358.568176,797.103638 
	C361.810974,798.894775 363.332428,798.133057 364.145660,794.591614 
	C365.963898,786.673584 367.995789,778.804749 369.900574,770.906250 
	C370.334930,769.105225 371.264679,767.260925 370.006287,764.945435 
	C364.452393,771.005188 359.205170,776.730347 353.454773,782.954041 
z"/>
<path fill="#000000" opacity="1.000000" stroke="none" 
	d="
M178.650803,301.275757 
	C176.284729,299.600739 172.067154,300.347626 172.163177,297.019135 
	C172.269791,293.324249 176.398758,293.348572 179.065247,292.391937 
	C184.167770,290.561279 189.480957,290.226318 194.826782,291.185608 
	C198.785370,291.895996 200.541580,294.288605 199.923935,298.326263 
	C199.722778,299.641174 199.406525,300.957001 199.380905,302.277069 
	C199.244644,309.296844 198.229919,311.764862 207.104416,310.404877 
	C211.881363,309.672852 215.407578,312.376617 216.936569,317.111633 
	C219.134399,323.917999 221.234512,330.755920 223.376373,337.580353 
	C224.405075,340.857941 225.490967,343.945465 229.919907,343.800690 
	C232.122070,343.728729 233.398178,345.570221 234.672531,347.111084 
	C236.249008,349.017181 237.784317,350.950317 241.123489,351.992584 
	C239.845947,346.315216 234.074188,343.341309 234.247787,337.821869 
	C236.549347,336.844025 237.489365,338.374237 238.161148,339.517334 
	C244.469284,350.251251 254.692581,357.199249 263.295624,365.708313 
	C264.597321,366.995758 266.016907,368.169434 267.259613,369.509247 
	C268.143982,370.462738 269.224030,371.536041 268.620544,373.019043 
	C267.942902,374.684265 266.336548,374.492859 264.851105,374.798798 
	C256.146637,376.591431 249.682022,373.848541 243.991516,366.827576 
	C239.671387,361.497345 234.392899,356.700256 227.890533,352.903107 
	C226.704361,356.198181 227.278839,359.258331 227.727402,362.257477 
	C228.367386,366.536560 229.364807,370.766174 229.901535,375.055450 
	C230.333832,378.510040 229.151260,380.455475 225.021851,379.613037 
	C220.590561,378.709015 218.132675,376.169403 216.619492,372.050110 
	C214.053680,365.065125 214.301773,357.626953 212.781906,350.477570 
	C211.150665,342.804352 208.984650,335.301605 206.184753,327.992737 
	C205.275726,325.619904 204.562729,322.895660 201.789490,321.574982 
	C198.377151,323.931946 199.435364,327.745148 198.299576,330.704559 
	C196.986557,334.125702 197.103653,338.884003 191.487564,338.185120 
	C186.342422,337.544891 181.971664,332.215302 182.694748,327.235443 
	C183.609619,320.934753 183.984222,314.683685 183.241089,308.340729 
	C182.882324,305.278534 181.703262,302.951233 178.650803,301.275757 
z"/>
<path fill="#000000" opacity="1.000000" stroke="none" 
	d="
M543.700195,862.628113 
	C545.999634,840.373901 548.336182,818.550354 550.507263,796.710449 
	C550.967346,792.082703 550.810974,787.394470 550.961060,782.734802 
	C551.085144,778.882812 557.383484,772.754028 561.203064,772.755249 
	C563.681580,772.756104 563.882202,774.841858 564.573669,776.476013 
	C574.882324,800.838989 585.170654,825.210632 595.520508,849.556091 
	C597.505859,854.226013 598.888428,859.578613 605.655334,859.592773 
	C607.062439,859.595703 607.989624,860.864014 608.089478,862.356812 
	C608.210510,864.164856 607.080444,865.213684 605.486023,865.501770 
	C598.123962,866.831848 590.745728,868.073853 583.365967,869.303040 
	C581.704346,869.579834 580.319702,869.054932 579.943481,867.230164 
	C579.522461,865.188232 580.242065,863.342773 582.250122,862.812439 
	C586.469116,861.698364 585.697693,859.187683 584.511597,856.317627 
	C582.159546,850.626099 579.846619,844.918213 577.550415,839.203857 
	C576.301514,836.095886 574.325623,834.799377 570.893860,835.903809 
	C568.209656,836.767700 565.416748,837.320557 562.646118,837.883667 
	C554.385681,839.562317 554.358765,839.535217 553.416443,847.865173 
	C552.968018,851.830200 552.691040,855.815186 552.208252,859.775574 
	C551.749878,863.535767 553.028015,865.836121 556.975281,866.513184 
	C559.083496,866.874878 561.640991,867.359070 561.479248,870.225830 
	C561.314819,873.140259 558.585144,873.021240 556.540466,873.397095 
	C551.474487,874.328247 546.392456,875.176514 541.304932,875.983032 
	C539.842468,876.214905 538.140320,876.487732 537.287903,874.849548 
	C536.318848,872.987122 537.499512,871.515930 538.905762,870.622253 
	C541.751465,868.814148 543.861755,866.699646 543.700195,862.628113 
M570.086914,821.259705 
	C566.689270,813.146790 564.192932,804.602295 559.461060,797.128174 
	C559.038147,797.235046 558.615295,797.341980 558.192383,797.448853 
	C557.175232,808.899536 556.158020,820.350159 555.093628,832.332275 
	C559.297302,831.674500 562.555969,831.166382 565.813965,830.654297 
	C573.461060,829.452637 573.682007,829.032898 570.086914,821.259705 
z"/>
<path fill="#000000" opacity="1.000000" stroke="none" 
	d="
M544.103577,389.990845 
	C543.245056,399.322235 542.429443,408.210388 541.577515,417.493622 
	C546.102722,417.121643 548.996826,414.438782 552.182068,412.597046 
	C572.361206,400.929260 592.381714,389.056824 613.794922,379.605377 
	C643.242920,366.607574 671.585327,369.079071 697.966064,386.221100 
	C716.912109,398.532166 727.313599,417.379150 728.809937,440.235962 
	C729.365295,448.719574 726.529785,456.970825 724.286865,465.181366 
	C721.251709,476.292206 717.697205,487.202393 712.812012,497.631836 
	C700.156067,524.651672 678.929077,540.656311 649.732605,546.182129 
	C642.381409,547.573425 634.954285,548.562622 627.564026,549.748840 
	C626.112366,549.981812 624.610596,550.600220 623.381165,548.898621 
	C623.257080,546.015930 625.756409,544.805908 627.446838,543.141479 
	C642.772522,528.051086 656.098938,511.531616 664.109985,491.301697 
	C675.805908,461.766632 659.424622,425.055389 630.371887,414.715851 
	C617.472168,410.124908 605.388977,413.293518 593.306580,417.332703 
	C575.859497,423.165344 559.967590,432.461700 543.345398,440.135162 
	C540.212219,441.581573 539.635559,444.290955 539.470520,447.133759 
	C537.811768,475.706299 534.003357,504.182648 535.371521,532.892944 
	C536.571777,558.082153 539.004150,583.059021 549.802124,606.362427 
	C552.914307,613.078857 557.267151,618.937805 562.612122,624.088806 
	C565.907837,627.264832 569.731384,628.801636 574.281860,628.975952 
	C585.748779,629.415100 596.389587,626.609558 606.398010,621.137024 
	C608.102539,620.205017 609.606384,618.666443 611.834045,619.214050 
	C613.079895,620.797729 612.179016,622.171936 611.314209,623.327209 
	C600.378052,637.935242 588.489136,651.617065 572.711426,661.267517 
	C567.446411,664.487793 561.769409,666.955200 555.653687,668.191650 
	C537.611084,671.839539 524.578491,665.627625 515.352661,648.927917 
	C507.746857,635.160828 503.945221,620.182861 501.822998,604.757080 
	C500.372559,594.214233 499.380646,583.612488 498.908447,572.961121 
	C498.099304,554.709106 500.382355,536.757629 503.581238,518.856323 
	C506.628418,501.803802 507.851654,484.537109 509.224396,467.294647 
	C509.299225,466.354889 508.900635,465.377472 508.679230,464.184784 
	C505.910858,464.053314 504.369080,465.939545 502.593170,467.267334 
	C485.385834,480.132385 468.652802,493.664673 450.585876,505.330902 
	C431.685455,517.535339 411.796478,528.285339 388.849792,529.203186 
	C358.469757,530.418396 338.667114,518.911682 330.381226,492.171295 
	C323.038544,468.474976 321.774628,444.467468 327.776031,420.271088 
	C330.062012,411.054382 334.984406,403.142792 340.673309,395.652069 
	C356.316101,375.054688 373.837769,356.083893 391.253479,337.017303 
	C394.224182,333.764984 396.971619,330.308746 399.867767,326.892944 
	C402.421997,329.091034 400.894592,330.708588 400.156891,332.197662 
	C392.075531,348.510284 384.924316,365.228607 381.065186,383.055542 
	C378.266968,395.981445 375.077515,408.836273 376.940674,422.500275 
	C379.436676,440.805450 390.310364,451.283997 406.538635,457.394501 
	C427.166290,465.161560 447.520477,462.499939 467.511871,454.828400 
	C479.483429,450.234375 491.221466,445.063049 502.766785,439.449707 
	C507.587494,437.105865 510.034790,434.106628 509.967651,428.315216 
	C509.670166,402.659027 509.693817,376.997162 509.825653,351.338501 
	C509.938995,329.277618 515.946472,308.976746 528.695190,290.795868 
	C531.126770,287.328217 534.014954,284.399597 537.498230,282.040253 
	C543.843018,277.742706 549.858765,279.154938 553.211975,286.038330 
	C560.146484,300.273193 561.087097,315.443329 559.860535,330.929474 
	C559.166016,339.697601 556.259216,347.807648 552.923767,355.829742 
	C548.423767,366.652771 545.616760,377.929413 544.103577,389.990845 
z"/>
</svg>